<svg version="1.1" xmlns="http://www.w3.org/2000/svg" viewBox="0 0 32 32" style="enable-background:new 0 0 32 32;fill:white;" xml:space="preserve">
<title>oculus</title>
<path d="M24.2,18.6c-0.4,0.3-0.9,0.5-1.4,0.6c-0.5,0.1-1,0.1-1.5,0.1H10.8c-0.5,0-1,0-1.5-0.1c-0.5-0.1-1-0.3-1.4-0.6
	C7,18,6.4,17,6.4,16c0-1.1,0.5-2,1.4-2.6c0.4-0.3,0.9-0.5,1.4-0.6c0.5-0.1,1-0.1,1.5-0.1h10.5c0.5,0,1,0,1.5,0.1s1,0.3,1.4,0.5
	c0.9,0.6,1.4,1.6,1.4,2.6C25.5,17,25,18,24.2,18.6L24.2,18.6z M28.4,8.5C27.3,7.6,26,7,24.6,6.7c-0.8-0.2-1.6-0.3-2.4-0.3
	c-0.6,0-1.2,0-1.8,0h-8.7c-0.6,0-1.2,0-1.8,0C9,6.4,8.2,6.5,7.4,6.7C6,7,4.7,7.6,3.6,8.5C1.3,10.3,0,13.1,0,16
	c0,2.9,1.3,5.7,3.6,7.5C4.7,24.4,6,25,7.4,25.3c0.8,0.2,1.6,0.3,2.4,0.3c0.6,0,1.2,0,1.8,0h8.7c0.6,0,1.2,0,1.8,0
	c0.8,0,1.6-0.1,2.4-0.3c1.4-0.3,2.7-1,3.8-1.9c2.3-1.8,3.6-4.6,3.6-7.5S30.7,10.3,28.4,8.5z"/>
</svg>
