<svg width="350" height="350" xmlns="http://www.w3.org/2000/svg">
<title>sq</title>
<path fill="white" d="m437.37,163.1688zm-87.8524,-11.9048l-77.11708,-137.264l-154.26996,0l36.57533,65.0348l11.1651,19.8812l-13.34976,23.7268l-26.66372,0l-11.14719,-19.8812l-36.56637,-65.0532l-77.14394,137.2916l77.11708,137.264l36.59323,-65.0716l11.1651,-19.8812l26.66372,0l13.34976,23.7636l-11.19196,19.8812l-36.56637,65.044l154.26996,0l77.11708,-137.264l-95.41816,0l-13.34081,-23.736l13.34081,-23.7268l95.41816,-0.0092l0,-0.00001zm-271.73181,-75.8172l14.27199,25.392l-21.89148,38.9528l91.9979,0l46.01238,-81.88l-43.78294,0l-14.26304,-25.392l102.30346,0l-75.27263,133.9796l-150.54528,0l51.16963,-91.0524zm72.32691,241.96l14.26304,-25.392l43.78294,0l-46.01238,-81.88l-91.97999,0l21.89148,38.9528l-14.27199,25.392l-51.16963,-91.08l150.54528,0l19.81425,35.2636l55.45839,98.7252l-102.32137,0.0184l-0.00001,-0.00001zm117.38126,-60.5268l21.87357,-38.9528l28.53502,0l-51.15173,91.08l-45.14389,-80.2976l-30.15562,-53.7096l35.70683,-63.526l39.59267,-70.4352l51.15173,91.08l-28.53502,0l-21.87357,-38.9988l-46.01238,81.88l46.01238,81.88l0,0.00002z"/>
</svg>